<?xml version="1.0" encoding="UTF-8"?>
<svg xmlns="http://www.w3.org/2000/svg" width="360" height="56" viewBox="0 0 360 56" fill="none">
  <defs>
    <linearGradient id="bg" x1="0" y1="0" x2="360" y2="56" gradientUnits="userSpaceOnUse">
      <stop offset="0" stop-color="#1a0508"/>
      <stop offset="0.45" stop-color="#8b0f1a"/>
      <stop offset="1" stop-color="#3d1018"/>
    </linearGradient>
    <linearGradient id="gold" x1="0" y1="0" x2="1" y2="1">
      <stop offset="0" stop-color="#ffe566"/>
      <stop offset="1" stop-color="#c9a227"/>
    </linearGradient>
    <filter id="glow" x="-20%" y="-40%" width="140%" height="180%">
      <feGaussianBlur stdDeviation="1.2" result="b"/>
      <feMerge>
        <feMergeNode in="b"/>
        <feMergeNode in="SourceGraphic"/>
      </feMerge>
    </filter>
  </defs>
  <rect width="360" height="56" fill="url(#bg)"/>
  <path d="M0 56 L120 0 L0 0 Z" fill="#e63946" opacity="0.35"/>
  <path d="M240 56 L360 20 L360 56 Z" fill="#00f5d4" opacity="0.12"/>
  <g opacity="0.9">
    <path d="M28 28 L32 18 L36 28 L32 38 Z" fill="url(#gold)"/>
    <path d="M32 14 L34 22 L42 24 L34 26 L32 34 L30 26 L22 24 L30 22 Z" fill="url(#gold)"/>
  </g>
  <rect x="52" y="6" width="2" height="44" fill="#00f5d4" opacity="0.55"/>
  <text x="64" y="24" font-family="Oswald, Impact, sans-serif" font-size="22" font-weight="700" fill="#fff8f0" letter-spacing="0.12em" filter="url(#glow)">&#1057;&#1051;&#1040;&#1042;&#1040;</text>
  <text x="64" y="46" font-family="Oswald, Impact, sans-serif" font-size="20" font-weight="700" fill="#e63946" letter-spacing="0.28em" filter="url(#glow)">&#1050;&#1055;&#1057;&#1057;</text>
  <text x="188" y="32" font-family="JetBrains Mono, monospace" font-size="8.5" fill="#00f5d4" opacity="0.85" letter-spacing="0.15em">&#9733; &#1055;&#1054;&#1041;&#1045;&#1044;&#1040; &#1058;&#1056;&#1059;&#1044;&#1040; &#9733;</text>
  <rect x="318" y="10" width="32" height="36" fill="none" stroke="#c9a227" stroke-width="1.5" opacity="0.7"/>
  <path d="M334 18 L338 28 L334 38 L330 28 Z" fill="#e63946"/>
</svg>
