<svg width="95" height="485" viewBox="0 0 95 485" fill="none" xmlns="http://www.w3.org/2000/svg">
<path d="M16.4079 441.3C16.4103 445.008 17.1416 448.299 18.6017 451.173C20.0202 454.006 22.0843 456.4 24.7938 458.357C27.5034 460.272 30.7752 461.728 34.6092 462.726C38.4431 463.723 42.7559 464.22 47.5476 464.217C54.0059 464.213 59.5263 463.418 64.1086 461.832C68.6492 460.204 72.1268 457.702 74.5413 454.325C76.9141 450.948 78.0988 446.594 78.0954 441.26C78.093 437.552 77.674 433.844 76.8383 430.136C76.0025 426.387 74.8124 422.325 73.2679 417.951L89.5179 417.94C91.1872 421.981 92.3773 425.959 93.0881 429.876C93.8406 433.792 94.2184 438.187 94.2216 443.062C94.2276 452.479 92.2951 460.23 88.424 466.316C84.5112 472.36 79.0557 476.843 72.0576 479.764C65.0178 482.685 56.8104 484.149 47.4354 484.155C40.5187 484.159 34.1848 483.226 28.4336 481.355C22.6824 479.483 17.7015 476.736 13.4908 473.114C9.28015 469.492 6.02728 465.015 3.73219 459.683C1.43711 454.351 0.287348 448.227 0.282913 441.31C0.280001 436.768 0.860422 432.226 2.02418 427.684C3.14624 423.1 4.70593 418.724 6.70326 414.556L22.4573 420.796C20.8345 424.214 19.42 427.652 18.2139 431.111C17.0078 434.57 16.4058 437.966 16.4079 441.3ZM92.9203 363.188L92.9328 382.563L17.6828 382.611L17.6987 407.424L1.57369 407.434L1.52945 338.434L17.6544 338.424L17.6704 363.236L92.9203 363.188ZM1.50172 295.184C1.49416 283.393 4.03031 274.787 9.11016 269.367C14.1484 263.947 21.105 261.234 29.9799 261.229C33.9799 261.226 37.8137 261.828 41.4811 263.034C45.1069 264.24 48.3373 266.217 51.1724 268.965C54.0075 271.671 56.2598 275.295 57.9294 279.836C59.5573 284.376 60.3734 289.98 60.3777 296.647L60.383 304.959L92.883 304.938L92.8954 324.313L1.52043 324.372L1.50172 295.184ZM17.3774 296.174L17.383 304.987L44.508 304.969L44.5039 298.594C44.5016 294.969 44.0204 291.824 43.0604 289.158C42.1003 286.492 40.599 284.43 38.5564 282.973C36.5138 281.516 33.8883 280.789 30.68 280.791C26.18 280.793 22.8475 282.046 20.6824 284.547C18.4757 287.048 17.374 290.924 17.3774 296.174ZM92.8101 191.313L92.8439 243.938L1.4689 243.997L1.43515 191.372L17.3101 191.362L17.3315 224.612L37.394 224.599L37.3741 193.661L53.2491 193.651L53.269 224.589L76.8315 224.574L76.8101 191.324L92.8101 191.313ZM92.7515 99.8758L92.7639 119.188L17.5139 119.237L17.5282 141.612C21.4452 142.109 25.7164 142.648 30.3418 143.228C34.9672 143.809 39.6342 144.41 44.3429 145.032C49.0517 145.654 53.5313 146.318 57.7817 147.023C62.0322 147.687 65.7617 148.351 68.9705 149.016C74.3045 150.096 78.8471 151.572 82.5983 153.445C86.3079 155.276 89.1428 157.795 91.1032 161.002C93.0636 164.167 94.0454 168.312 94.0487 173.437C94.0498 175.146 93.9258 176.792 93.6768 178.375C93.4278 179.917 93.0954 181.355 92.6796 182.688L76.8046 182.699C77.1789 181.615 77.4907 180.531 77.74 179.448C77.9477 178.364 78.0511 177.177 78.0502 175.885C78.0492 174.219 77.5066 172.844 76.4226 171.761C75.2969 170.637 73.4004 169.638 70.7332 168.765C68.0243 167.892 64.2945 167.019 59.544 166.147C57.4604 165.773 54.5226 165.275 50.7305 164.653C46.8968 164.03 42.4172 163.325 37.2917 162.536C32.1245 161.748 26.499 160.939 20.4151 160.11C14.3312 159.239 7.99735 158.409 1.41351 157.622L1.37652 99.9344L92.7515 99.8758ZM92.7008 20.8758L70.9551 27.5147L70.9765 60.8272L92.7307 67.4383L92.7441 88.3133L0.973431 56.1221L0.958242 32.4346L92.6875 0.000802258L92.7008 20.8758ZM54.7081 32.1502L33.4623 38.7888C32.0459 39.2064 30.2338 39.77 28.0259 40.4798C25.7763 41.1479 23.5059 41.8368 21.2147 42.5466C18.8818 43.2148 16.8613 43.7578 15.1533 44.1755C16.8619 44.5911 18.9872 45.1731 21.5294 45.9214C24.0298 46.6282 26.4053 47.3141 28.6557 47.9794C30.9061 48.6446 32.5106 49.1227 33.4691 49.4138L54.7233 55.9627L54.7081 32.1502Z" fill="#13347F"/>
</svg>
